<svg width="96" height="48" viewBox="0 0 96 48" fill="none" xmlns="http://www.w3.org/2000/svg">
<g filter="url(#filter0_d_13_19)">
<path d="M14.4023 8.51685H19.194V30.6966C16.7362 31.1635 14.9312 31.3501 12.9705 31.3501C7.12027 31.3501 4.07086 28.7057 4.07086 23.6337C4.07086 18.7483 7.30689 15.575 12.3162 15.575C13.0944 15.575 13.6852 15.6369 14.4007 15.8235L14.4023 8.51685ZM14.4023 19.6821C13.8425 19.4955 13.3755 19.4336 12.7847 19.4336C10.3579 19.4336 8.95707 20.9265 8.95707 23.5408C8.95707 26.0923 10.2952 27.4923 12.753 27.4923C13.305 27.4913 13.8563 27.4499 14.4023 27.3684V19.6821ZM26.8176 15.918V27.0261C26.8176 30.8538 26.5372 32.6882 25.7058 34.2764C24.9276 35.8011 23.9008 36.766 21.7852 37.8238L17.3358 35.7074C19.4521 34.7116 20.4781 33.8413 21.1317 32.5024C21.8162 31.1333 22.0346 29.5467 22.0346 25.3768V15.9268L26.8176 15.918ZM22.0259 8.54464H26.8176V13.4682H22.0259V8.54464ZM29.7113 17.0068C31.8277 16.0109 33.8407 15.5758 36.0595 15.5758C38.5173 15.5758 40.1357 16.2293 40.8512 17.5055C41.2483 18.2202 41.3801 19.1548 41.3801 21.1465V30.8911C39.2328 31.2024 36.5257 31.42 34.5348 31.42C30.5213 31.42 28.7163 30.0192 28.7163 26.9078C28.7163 23.5471 31.1122 21.9843 36.9934 21.4935V20.4358C36.9934 19.5646 36.5566 19.2446 35.344 19.2446C33.5707 19.2446 31.5799 19.7425 29.7121 20.7073V17.0044L29.7113 17.0068ZM37.2102 24.6303C34.0361 24.9416 33.0014 25.4403 33.0014 26.6839C33.0014 27.617 33.593 28.0529 34.9072 28.0529C35.622 28.0529 36.2763 27.991 37.2102 27.8353V24.6303ZM43.722 16.6653C46.553 15.9188 48.8869 15.5773 51.2518 15.5773C53.7096 15.5773 55.4844 16.1372 56.5422 17.2267C57.538 18.2535 57.8485 19.3732 57.8485 21.7691V31.1659H53.0568V21.9541C53.0568 20.1181 52.4342 19.4336 50.7221 19.4336C50.0685 19.4336 49.4777 19.4955 48.5129 19.7751V31.1627H43.7132L43.722 16.6653ZM59.7036 33.7785C61.3839 34.6497 63.0643 35.0539 64.8375 35.0539C67.9799 35.0539 69.3179 33.7785 69.3179 30.7291V30.6354C68.3849 31.1016 67.4518 31.289 66.2066 31.289C61.9978 31.289 59.3295 28.5199 59.3295 24.1324C59.3295 18.6863 63.2819 15.6067 70.282 15.6067C72.3356 15.6067 74.2343 15.8243 76.5365 16.2913L74.8958 19.7481C73.6197 19.4995 74.7926 19.7147 73.8293 19.621V20.1189L73.8913 22.1407L73.923 24.755C73.9548 25.4085 73.9548 26.0621 73.9866 26.7148V28.022C73.9866 32.1291 73.6451 34.0573 72.6175 35.6455C71.1246 37.9802 68.5413 39.1396 64.8693 39.1396C63.0031 39.1396 61.3847 38.8593 59.7044 38.2057V33.7873L59.7036 33.7785ZM69.233 19.4653H68.7351C67.802 19.4336 66.7132 19.6829 65.966 20.1499C64.8145 20.8034 64.2237 21.9859 64.2237 23.6662C64.2237 26.0621 65.4149 27.4303 67.5225 27.4303C68.176 27.4303 68.7136 27.3057 69.3267 27.1191V25.4697C69.3267 24.9098 69.2949 24.2785 69.2949 23.6337L69.2632 21.4244L69.2314 19.8378V19.4646L69.233 19.4653ZM83.975 15.5138C88.7667 15.5138 91.6914 18.5315 91.6914 23.4177C91.6914 28.4206 88.642 31.5701 83.7876 31.5701C78.9959 31.5701 76.0394 28.5524 76.0394 23.698C76.0394 18.6569 79.0888 15.5146 83.9742 15.5146L83.975 15.5138ZM83.8813 27.7115C85.7173 27.7115 86.8068 26.1868 86.8068 23.5423C86.8068 20.9218 85.749 19.3732 83.913 19.3732C82.0072 19.3732 80.9256 20.8979 80.9256 23.5423C80.9256 26.1868 82.0151 27.7115 83.8813 27.7115Z" fill="#092E20"/>
</g>
<defs>
<filter id="filter0_d_13_19" x="-3.76471" y="0" width="103.294" height="55.647" filterUnits="userSpaceOnUse" color-interpolation-filters="sRGB">
<feFlood flood-opacity="0" result="BackgroundImageFix"/>
<feColorMatrix in="SourceAlpha" type="matrix" values="0 0 0 0 0 0 0 0 0 0 0 0 0 0 0 0 0 0 127 0" result="hardAlpha"/>
<feOffset dy="4"/>
<feGaussianBlur stdDeviation="2"/>
<feComposite in2="hardAlpha" operator="out"/>
<feColorMatrix type="matrix" values="0 0 0 0 0 0 0 0 0 0 0 0 0 0 0 0 0 0 0.25 0"/>
<feBlend mode="normal" in2="BackgroundImageFix" result="effect1_dropShadow_13_19"/>
<feBlend mode="normal" in="SourceGraphic" in2="effect1_dropShadow_13_19" result="shape"/>
</filter>
</defs>
</svg>
