<svg width="48" height="287" viewBox="0 0 48 287" fill="none" xmlns="http://www.w3.org/2000/svg">
<path d="M17.1678 1.64487C14.5549 51.2903 16.598 100.67 17.1678 150.244C17.47 176.54 18.1242 204.796 22.8275 230.664C25.8424 247.246 24.2753 298.06 24.2753 281.206" stroke="white" stroke-width="3" stroke-linecap="round"/>
<path d="M23.0163 285.396C31.3337 277.078 41.1137 269.825 45.6238 258.549" stroke="white" stroke-width="3" stroke-linecap="round"/>
<path d="M23.0163 285.396C22.9213 284.636 21.6762 283.744 21.237 283.145C19.2978 280.501 17.1196 278.056 15.1665 275.426C12.9877 272.494 10.6302 269.764 8.4418 266.818C6.74223 264.53 5.37267 261.761 3.60108 259.596C3.27952 259.203 1.25641 257.56 2.29278 258.078" stroke="white" stroke-width="3" stroke-linecap="round"/>
</svg>
