<svg width="419" height="394" viewBox="0 0 419 394" fill="none" xmlns="http://www.w3.org/2000/svg">
<rect width="419" height="393.029" rx="16.8163" fill="url(#paint0_linear_13_230)"/>
<path d="M73.1 244.456V264H69.18V250.364L64.168 264H60.752L55.74 250.42V264H51.792V244.456H56.58L62.516 259.156L68.34 244.456H73.1ZM79.3348 248.488L83.5628 259.016L87.4828 248.488H91.8228L82.3308 271.392H77.9628L81.4628 263.552L74.9388 248.488H79.3348ZM117.168 254.088C117.168 256.048 116.758 257.775 115.936 259.268C115.115 260.761 113.92 261.928 112.352 262.768C110.803 263.589 108.955 264 106.808 264H99.7803V244.232H106.808C108.955 244.232 110.803 244.643 112.352 245.464C113.92 246.267 115.115 247.415 115.936 248.908C116.758 250.383 117.168 252.109 117.168 254.088ZM106.472 260.472C108.6 260.472 110.243 259.912 111.4 258.792C112.576 257.672 113.164 256.104 113.164 254.088C113.164 252.053 112.576 250.476 111.4 249.356C110.243 248.236 108.6 247.676 106.472 247.676H103.728V260.472H106.472ZM127.292 248.292C128.804 248.292 130.157 248.609 131.352 249.244C132.565 249.879 133.517 250.803 134.208 252.016C134.899 253.211 135.244 254.62 135.244 256.244C135.244 257.868 134.899 259.277 134.208 260.472C133.517 261.667 132.565 262.591 131.352 263.244C130.157 263.879 128.804 264.196 127.292 264.196C125.78 264.196 124.417 263.879 123.204 263.244C122.009 262.591 121.067 261.667 120.376 260.472C119.685 259.277 119.34 257.868 119.34 256.244C119.34 254.62 119.685 253.211 120.376 252.016C121.067 250.803 122.009 249.879 123.204 249.244C124.417 248.609 125.78 248.292 127.292 248.292ZM127.292 251.708C126.191 251.708 125.257 252.1 124.492 252.884C123.727 253.649 123.344 254.769 123.344 256.244C123.344 257.719 123.727 258.848 124.492 259.632C125.257 260.397 126.191 260.78 127.292 260.78C128.393 260.78 129.327 260.397 130.092 259.632C130.857 258.848 131.24 257.719 131.24 256.244C131.24 254.769 130.857 253.649 130.092 252.884C129.327 252.1 128.393 251.708 127.292 251.708ZM144.11 248.292C145.417 248.292 146.537 248.6 147.47 249.216C148.404 249.832 149.066 250.663 149.458 251.708V248.488H153.378V264.056C153.378 265.493 153.089 266.781 152.51 267.92C151.95 269.077 151.101 269.983 149.962 270.636C148.842 271.289 147.48 271.616 145.874 271.616C143.634 271.616 141.824 271.084 140.442 270.02C139.061 268.956 138.221 267.509 137.922 265.68H141.814C142.038 266.464 142.468 267.071 143.102 267.5C143.756 267.948 144.586 268.172 145.594 268.172C146.752 268.172 147.685 267.827 148.394 267.136C149.104 266.464 149.458 265.437 149.458 264.056V260.752C149.066 261.797 148.404 262.637 147.47 263.272C146.537 263.888 145.417 264.196 144.11 264.196C142.804 264.196 141.628 263.879 140.582 263.244C139.537 262.609 138.716 261.695 138.118 260.5C137.54 259.287 137.25 257.868 137.25 256.244C137.25 254.62 137.54 253.211 138.118 252.016C138.716 250.803 139.537 249.879 140.582 249.244C141.628 248.609 142.804 248.292 144.11 248.292ZM145.342 251.736C144.11 251.736 143.121 252.137 142.374 252.94C141.628 253.743 141.254 254.844 141.254 256.244C141.254 257.644 141.628 258.745 142.374 259.548C143.121 260.332 144.11 260.724 145.342 260.724C146.537 260.724 147.517 260.323 148.282 259.52C149.066 258.699 149.458 257.607 149.458 256.244C149.458 254.863 149.066 253.771 148.282 252.968C147.517 252.147 146.537 251.736 145.342 251.736ZM169.13 248.292C170.436 248.292 171.556 248.6 172.49 249.216C173.423 249.832 174.086 250.663 174.478 251.708V248.488H178.398V264H174.478V260.752C174.086 261.797 173.423 262.637 172.49 263.272C171.556 263.888 170.436 264.196 169.13 264.196C167.823 264.196 166.647 263.879 165.602 263.244C164.556 262.609 163.735 261.695 163.138 260.5C162.559 259.287 162.27 257.868 162.27 256.244C162.27 254.62 162.559 253.211 163.138 252.016C163.735 250.803 164.556 249.879 165.602 249.244C166.647 248.609 167.823 248.292 169.13 248.292ZM170.362 251.736C169.13 251.736 168.14 252.137 167.394 252.94C166.647 253.743 166.274 254.844 166.274 256.244C166.274 257.644 166.647 258.745 167.394 259.548C168.14 260.332 169.13 260.724 170.362 260.724C171.556 260.724 172.536 260.323 173.302 259.52C174.086 258.699 174.478 257.607 174.478 256.244C174.478 254.863 174.086 253.771 173.302 252.968C172.536 252.147 171.556 251.736 170.362 251.736ZM190.264 260.612V264H188.192C186.456 264 185.121 263.58 184.188 262.74C183.273 261.9 182.816 260.5 182.816 258.54V251.82H180.66V248.488H182.816V244.652H186.764V248.488H190.236V251.82H186.764V258.596C186.764 259.343 186.913 259.865 187.212 260.164C187.51 260.463 188.014 260.612 188.724 260.612H190.264ZM207.693 255.656C207.693 256.048 207.646 256.496 207.553 257H196.185C196.241 258.381 196.614 259.399 197.305 260.052C197.995 260.705 198.854 261.032 199.881 261.032C200.795 261.032 201.551 260.808 202.149 260.36C202.765 259.912 203.157 259.305 203.325 258.54H207.497C207.291 259.623 206.853 260.593 206.181 261.452C205.509 262.311 204.641 262.983 203.577 263.468C202.531 263.953 201.365 264.196 200.077 264.196C198.565 264.196 197.221 263.879 196.045 263.244C194.869 262.591 193.954 261.667 193.301 260.472C192.647 259.277 192.321 257.868 192.321 256.244C192.321 254.62 192.647 253.211 193.301 252.016C193.954 250.803 194.869 249.879 196.045 249.244C197.221 248.609 198.565 248.292 200.077 248.292C201.607 248.292 202.942 248.609 204.081 249.244C205.238 249.879 206.125 250.756 206.74 251.876C207.375 252.977 207.693 254.237 207.693 255.656ZM203.717 255.264C203.773 253.995 203.437 253.033 202.709 252.38C201.999 251.727 201.122 251.4 200.077 251.4C199.013 251.4 198.117 251.727 197.389 252.38C196.661 253.033 196.259 253.995 196.185 255.264H203.717ZM236.333 248.264C238.218 248.264 239.702 248.852 240.785 250.028C241.886 251.185 242.437 252.837 242.437 254.984V264H238.517V255.432C238.517 254.237 238.209 253.323 237.593 252.688C236.995 252.035 236.165 251.708 235.101 251.708C233.999 251.708 233.122 252.053 232.469 252.744C231.815 253.435 231.489 254.443 231.489 255.768V264H227.569V255.432C227.569 254.237 227.261 253.323 226.645 252.688C226.047 252.035 225.217 251.708 224.153 251.708C223.051 251.708 222.174 252.053 221.521 252.744C220.867 253.435 220.541 254.443 220.541 255.768V264H216.593V248.488H220.541V251.428C220.951 250.42 221.595 249.645 222.473 249.104C223.369 248.544 224.405 248.264 225.581 248.264C226.831 248.264 227.914 248.563 228.829 249.16C229.762 249.757 230.462 250.616 230.929 251.736C231.414 250.672 232.133 249.832 233.085 249.216C234.055 248.581 235.138 248.264 236.333 248.264ZM248.565 248.488L252.793 259.016L256.713 248.488H261.053L251.561 271.392H247.193L250.693 263.552L244.169 248.488H248.565ZM68.172 278.232V298H64.196V289.404H55.74V298H51.792V278.232H55.74V286.24H64.196V278.232H68.172ZM78.9209 282.292C80.4329 282.292 81.7863 282.609 82.9809 283.244C84.1943 283.879 85.1463 284.803 85.8369 286.016C86.5276 287.211 86.8729 288.62 86.8729 290.244C86.8729 291.868 86.5276 293.277 85.8369 294.472C85.1463 295.667 84.1943 296.591 82.9809 297.244C81.7863 297.879 80.4329 298.196 78.9209 298.196C77.4089 298.196 76.0463 297.879 74.8329 297.244C73.6383 296.591 72.6956 295.667 72.0049 294.472C71.3143 293.277 70.9689 291.868 70.9689 290.244C70.9689 288.62 71.3143 287.211 72.0049 286.016C72.6956 284.803 73.6383 283.879 74.8329 283.244C76.0463 282.609 77.4089 282.292 78.9209 282.292ZM78.9209 285.708C77.8196 285.708 76.8863 286.1 76.1209 286.884C75.3556 287.649 74.9729 288.769 74.9729 290.244C74.9729 291.719 75.3556 292.848 76.1209 293.632C76.8863 294.397 77.8196 294.78 78.9209 294.78C80.0223 294.78 80.9556 294.397 81.7209 293.632C82.4863 292.848 82.8689 291.719 82.8689 290.244C82.8689 288.769 82.4863 287.649 81.7209 286.884C80.9556 286.1 80.0223 285.708 78.9209 285.708ZM109.403 282.264C111.288 282.264 112.772 282.852 113.855 284.028C114.956 285.185 115.507 286.837 115.507 288.984V298H111.587V289.432C111.587 288.237 111.279 287.323 110.663 286.688C110.066 286.035 109.235 285.708 108.171 285.708C107.07 285.708 106.192 286.053 105.539 286.744C104.886 287.435 104.559 288.443 104.559 289.768V298H100.639V289.432C100.639 288.237 100.331 287.323 99.7151 286.688C99.1178 286.035 98.2871 285.708 97.2231 285.708C96.1218 285.708 95.2444 286.053 94.5911 286.744C93.9378 287.435 93.6111 288.443 93.6111 289.768V298H89.6631V282.488H93.6111V285.428C94.0218 284.42 94.6658 283.645 95.5431 283.104C96.4391 282.544 97.4751 282.264 98.6511 282.264C99.9018 282.264 100.984 282.563 101.899 283.16C102.832 283.757 103.532 284.616 103.999 285.736C104.484 284.672 105.203 283.832 106.155 283.216C107.126 282.581 108.208 282.264 109.403 282.264ZM133.564 289.656C133.564 290.048 133.517 290.496 133.424 291H122.056C122.112 292.381 122.485 293.399 123.176 294.052C123.866 294.705 124.725 295.032 125.752 295.032C126.666 295.032 127.422 294.808 128.02 294.36C128.636 293.912 129.028 293.305 129.196 292.54H133.368C133.162 293.623 132.724 294.593 132.052 295.452C131.38 296.311 130.512 296.983 129.448 297.468C128.402 297.953 127.236 298.196 125.948 298.196C124.436 298.196 123.092 297.879 121.916 297.244C120.74 296.591 119.825 295.667 119.172 294.472C118.518 293.277 118.192 291.868 118.192 290.244C118.192 288.62 118.518 287.211 119.172 286.016C119.825 284.803 120.74 283.879 121.916 283.244C123.092 282.609 124.436 282.292 125.948 282.292C127.478 282.292 128.813 282.609 129.952 283.244C131.109 283.879 131.996 284.756 132.612 285.876C133.246 286.977 133.564 288.237 133.564 289.656ZM129.588 289.264C129.644 287.995 129.308 287.033 128.58 286.38C127.87 285.727 126.993 285.4 125.948 285.4C124.884 285.4 123.988 285.727 123.26 286.38C122.532 287.033 122.13 287.995 122.056 289.264H129.588ZM158.57 282.488L154.398 298H150.03L146.698 286.716L143.282 298H138.914L134.77 282.488H138.718L141.238 294.472L144.682 282.488H148.854L152.326 294.472L154.874 282.488H158.57ZM167.706 282.292C169.218 282.292 170.571 282.609 171.766 283.244C172.979 283.879 173.931 284.803 174.622 286.016C175.313 287.211 175.658 288.62 175.658 290.244C175.658 291.868 175.313 293.277 174.622 294.472C173.931 295.667 172.979 296.591 171.766 297.244C170.571 297.879 169.218 298.196 167.706 298.196C166.194 298.196 164.831 297.879 163.618 297.244C162.423 296.591 161.481 295.667 160.79 294.472C160.099 293.277 159.754 291.868 159.754 290.244C159.754 288.62 160.099 287.211 160.79 286.016C161.481 284.803 162.423 283.879 163.618 283.244C164.831 282.609 166.194 282.292 167.706 282.292ZM167.706 285.708C166.605 285.708 165.671 286.1 164.906 286.884C164.141 287.649 163.758 288.769 163.758 290.244C163.758 291.719 164.141 292.848 164.906 293.632C165.671 294.397 166.605 294.78 167.706 294.78C168.807 294.78 169.741 294.397 170.506 293.632C171.271 292.848 171.654 291.719 171.654 290.244C171.654 288.769 171.271 287.649 170.506 286.884C169.741 286.1 168.807 285.708 167.706 285.708ZM182.396 285.456C182.975 284.467 183.74 283.692 184.692 283.132C185.644 282.553 186.708 282.264 187.884 282.264V286.492H186.736C183.843 286.492 182.396 287.836 182.396 290.524V298H178.448V282.488H182.396V285.456ZM199.141 298L194.017 291.224V298H190.069V277.28H194.017V288.928L199.113 282.488H203.789L197.265 290.216L203.957 298H199.141ZM209.15 293.884V298H204.894V293.884H209.15Z" fill="white"/>
<path d="M60.98 63.14C60.98 63.86 60.8 64.5267 60.44 65.14C60.08 65.74 59.5467 66.2267 58.84 66.6C58.1333 66.96 57.2733 67.14 56.26 67.14C55.26 67.14 54.3667 66.9733 53.58 66.64C52.7933 66.2933 52.16 65.8 51.68 65.16C51.2133 64.52 50.9467 63.7733 50.88 62.92H53.88C53.9467 63.4933 54.1733 63.9733 54.56 64.36C54.96 64.7333 55.4867 64.92 56.14 64.92C56.7267 64.92 57.1733 64.7667 57.48 64.46C57.8 64.14 57.96 63.7333 57.96 63.24C57.96 62.8 57.8333 62.44 57.58 62.16C57.3267 61.8667 57.0067 61.6333 56.62 61.46C56.2333 61.2867 55.7 61.0867 55.02 60.86C54.14 60.5667 53.42 60.28 52.86 60C52.3 59.7067 51.82 59.2867 51.42 58.74C51.0333 58.1933 50.84 57.48 50.84 56.6C50.84 55.3867 51.2733 54.4333 52.14 53.74C53.02 53.0333 54.18 52.68 55.62 52.68C57.1133 52.68 58.3 53.04 59.18 53.76C60.0733 54.48 60.58 55.44 60.7 56.64H57.66C57.58 56.1333 57.3667 55.72 57.02 55.4C56.6733 55.0667 56.2 54.9 55.6 54.9C55.08 54.9 54.66 55.04 54.34 55.32C54.02 55.5867 53.86 55.98 53.86 56.5C53.86 56.9133 53.98 57.26 54.22 57.54C54.4733 57.8067 54.7867 58.0267 55.16 58.2C55.5467 58.3733 56.0667 58.5667 56.72 58.78C57.6267 59.1 58.36 59.4 58.92 59.68C59.4933 59.96 59.98 60.38 60.38 60.94C60.78 61.5 60.98 62.2333 60.98 63.14ZM68.0373 55.78C69.464 55.78 70.6507 56.1667 71.5973 56.94C72.5573 57.7133 73.1573 58.7667 73.3973 60.1H70.4173C70.2973 59.5133 70.024 59.0533 69.5973 58.72C69.1707 58.3733 68.6307 58.2 67.9773 58.2C67.2307 58.2 66.604 58.48 66.0973 59.04C65.604 59.5867 65.3573 60.3933 65.3573 61.46C65.3573 62.5267 65.604 63.34 66.0973 63.9C66.604 64.4467 67.2307 64.72 67.9773 64.72C68.6307 64.72 69.1707 64.5533 69.5973 64.22C70.024 63.8733 70.2973 63.4067 70.4173 62.82H73.3973C73.1573 64.1533 72.5573 65.2067 71.5973 65.98C70.6507 66.7533 69.464 67.14 68.0373 67.14C66.9573 67.14 65.9973 66.9133 65.1573 66.46C64.3173 65.9933 63.664 65.3333 63.1973 64.48C62.7307 63.6267 62.4973 62.62 62.4973 61.46C62.4973 60.3 62.7307 59.2933 63.1973 58.44C63.664 57.5733 64.3173 56.9133 65.1573 56.46C65.9973 56.0067 66.9573 55.78 68.0373 55.78ZM82.0011 55.76C83.2811 55.76 84.3011 56.18 85.0611 57.02C85.8211 57.86 86.2011 59.04 86.2011 60.56V67H83.4011V60.88C83.4011 60 83.1744 59.32 82.7211 58.84C82.2678 58.3467 81.6478 58.1 80.8611 58.1C80.0611 58.1 79.4211 58.36 78.9411 58.88C78.4611 59.4 78.2211 60.1467 78.2211 61.12V67H75.4011V52.2H78.2211V58.14C78.5144 57.3933 78.9944 56.8133 79.6611 56.4C80.3411 55.9733 81.1211 55.76 82.0011 55.76ZM93.8023 55.78C94.8823 55.78 95.849 56.0067 96.7023 56.46C97.569 56.9133 98.249 57.5733 98.7423 58.44C99.2357 59.2933 99.4823 60.3 99.4823 61.46C99.4823 62.62 99.2357 63.6267 98.7423 64.48C98.249 65.3333 97.569 65.9933 96.7023 66.46C95.849 66.9133 94.8823 67.14 93.8023 67.14C92.7223 67.14 91.749 66.9133 90.8823 66.46C90.029 65.9933 89.3557 65.3333 88.8623 64.48C88.369 63.6267 88.1223 62.62 88.1223 61.46C88.1223 60.3 88.369 59.2933 88.8623 58.44C89.3557 57.5733 90.029 56.9133 90.8823 56.46C91.749 56.0067 92.7223 55.78 93.8023 55.78ZM93.8023 58.22C93.0157 58.22 92.349 58.5 91.8023 59.06C91.2557 59.6067 90.9823 60.4067 90.9823 61.46C90.9823 62.5133 91.2557 63.32 91.8023 63.88C92.349 64.4267 93.0157 64.7 93.8023 64.7C94.589 64.7 95.2557 64.4267 95.8023 63.88C96.349 63.32 96.6223 62.5133 96.6223 61.46C96.6223 60.4067 96.349 59.6067 95.8023 59.06C95.2557 58.5 94.589 58.22 93.8023 58.22ZM106.595 55.78C107.675 55.78 108.642 56.0067 109.495 56.46C110.362 56.9133 111.042 57.5733 111.535 58.44C112.029 59.2933 112.275 60.3 112.275 61.46C112.275 62.62 112.029 63.6267 111.535 64.48C111.042 65.3333 110.362 65.9933 109.495 66.46C108.642 66.9133 107.675 67.14 106.595 67.14C105.515 67.14 104.542 66.9133 103.675 66.46C102.822 65.9933 102.149 65.3333 101.655 64.48C101.162 63.6267 100.915 62.62 100.915 61.46C100.915 60.3 101.162 59.2933 101.655 58.44C102.149 57.5733 102.822 56.9133 103.675 56.46C104.542 56.0067 105.515 55.78 106.595 55.78ZM106.595 58.22C105.809 58.22 105.142 58.5 104.595 59.06C104.049 59.6067 103.775 60.4067 103.775 61.46C103.775 62.5133 104.049 63.32 104.595 63.88C105.142 64.4267 105.809 64.7 106.595 64.7C107.382 64.7 108.049 64.4267 108.595 63.88C109.142 63.32 109.415 62.5133 109.415 61.46C109.415 60.4067 109.142 59.6067 108.595 59.06C108.049 58.5 107.382 58.22 106.595 58.22ZM117.088 52.2V67H114.268V52.2H117.088Z" fill="white"/>
<path d="M341 370.64H393V318.64H341V370.64Z" fill="white"/>
<defs>
<linearGradient id="paint0_linear_13_230" x1="419" y1="0" x2="133.45" y2="360.702" gradientUnits="userSpaceOnUse">
<stop stop-color="#5099DD"/>
<stop offset="0.519347" stop-color="#5640DA"/>
<stop offset="1" stop-color="#439FB4"/>
</linearGradient>
</defs>
</svg>
