<svg width="35" height="35" viewBox="0 0 35 35" fill="none" xmlns="http://www.w3.org/2000/svg">
<g clip-path="url(#clip0_13_38)">
<path fill-rule="evenodd" clip-rule="evenodd" d="M17.4479 0C7.79964 0 0 8.02083 0 17.9437C0 25.8756 4.9975 32.5897 11.9304 34.9661C12.7971 35.1447 13.1146 34.58 13.1146 34.1049C13.1146 33.689 13.0861 32.2631 13.0861 30.7774C8.2325 31.8471 7.22179 28.6384 7.22179 28.6384C6.44179 26.5588 5.28607 26.0243 5.28607 26.0243C3.6975 24.9251 5.40179 24.9251 5.40179 24.9251C7.16393 25.044 8.08857 26.767 8.08857 26.767C9.64821 29.4999 12.1614 28.7277 13.1725 28.2523C13.3168 27.0936 13.7793 26.2916 14.2704 25.846C10.3993 25.4301 6.32643 23.8853 6.32643 16.9929C6.32643 15.0321 7.01929 13.428 8.11714 12.1804C7.94393 11.7348 7.33714 9.8926 8.29071 7.42693C8.29071 7.42693 9.76393 6.95151 13.0857 9.2688C14.5079 8.87602 15.9746 8.67621 17.4479 8.67453C18.9211 8.67453 20.4229 8.88271 21.8096 9.2688C25.1318 6.95151 26.605 7.42693 26.605 7.42693C27.5586 9.8926 26.9514 11.7348 26.7782 12.1804C27.905 13.428 28.5693 15.0321 28.5693 16.9929C28.5693 23.8853 24.4964 25.4002 20.5964 25.846C21.2321 26.4104 21.7807 27.4797 21.7807 29.1732C21.7807 31.5795 21.7521 33.5107 21.7521 34.1046C21.7521 34.58 22.07 35.1447 22.9364 34.9665C29.8693 32.5894 34.8668 25.8756 34.8668 17.9437C34.8954 8.02083 27.0671 0 17.4479 0Z" fill="white"/>
</g>
<defs>
<clipPath id="clip0_13_38">
<rect width="35" height="35" fill="white"/>
</clipPath>
</defs>
</svg>
