<svg width="123" height="41" viewBox="0 0 123 41" fill="none" xmlns="http://www.w3.org/2000/svg">
<path d="M6.11602 0H123V41H0L6.11602 0Z" fill="#1B1D1E"/>
<path d="M17.6262 32.1397L21.4282 8.20726H27.6744L24.721 26.9458H35.3463L34.5316 32.1397H17.6262Z" fill="white"/>
<path d="M46.2161 32.5131C44.1341 32.5131 42.3009 32.117 40.7168 31.3249C39.1552 30.5102 38.001 29.2768 37.2542 27.6248C36.5074 25.9501 36.3376 23.8567 36.745 21.3446L38.8158 8.20726H45.028L42.8894 21.6841C42.6178 23.4493 42.7875 24.8298 43.3986 25.8256C44.0322 26.8214 45.1298 27.3192 46.6914 27.3192C48.0945 27.3192 49.2148 26.9345 50.0521 26.165C50.9121 25.3956 51.4779 24.2075 51.7494 22.6006L54.0239 8.20726H60.1682L57.9277 22.2951C57.4072 25.5993 56.2304 28.134 54.3973 29.8992C52.5868 31.6418 49.8597 32.5131 46.2161 32.5131Z" fill="white"/>
<path d="M74.8656 32.5131C72.6478 32.5131 70.6562 32.1057 68.891 31.291C67.1484 30.4536 65.7679 29.2202 64.7495 27.5908C63.7537 25.9387 63.2559 23.9133 63.2559 21.5144C63.2559 19.5907 63.5501 17.8029 64.1385 16.1508C64.7269 14.4987 65.5869 13.0503 66.7184 11.8056C67.8726 10.5609 69.287 9.58776 70.9617 8.88619C72.6591 8.18463 74.6054 7.83385 76.8006 7.83385C78.43 7.83385 79.9689 8.08279 81.4173 8.58067C82.8657 9.05593 84.0086 9.67828 84.8459 10.4477L82.5036 15.3361C80.6705 13.9556 78.7242 13.2653 76.6648 13.2653C75.1485 13.2653 73.8812 13.6274 72.8628 14.3516C71.867 15.0532 71.1088 16.015 70.5883 17.2371C70.0904 18.4365 69.8415 19.7831 69.8415 21.2767C69.8415 23.2683 70.3054 24.7393 71.2333 25.6898C72.1612 26.6177 73.6209 27.0816 75.6124 27.0816C76.4951 27.0816 77.4116 26.9345 78.3621 26.6403C79.3126 26.3461 80.3084 25.8595 81.3494 25.1806L82.911 30.1029C82.2773 30.6007 81.5078 31.0307 80.6026 31.3928C79.6974 31.7549 78.7468 32.0265 77.7511 32.2076C76.7553 32.4112 75.7935 32.5131 74.8656 32.5131Z" fill="white"/>
<path d="M82.6406 32.1397L97.645 8.20726H102.601L109.968 32.1397H103.993L102.737 27.2853H91.9759L89.1244 32.1397H82.6406ZM99.3763 14.725L94.7935 22.4988H101.481L99.4442 14.725H99.3763Z" fill="white"/>
</svg>
