<svg width="96" height="48" viewBox="0 0 96 48" fill="none" xmlns="http://www.w3.org/2000/svg">
<g filter="url(#filter0_d_13_26)">
<path d="M20.6791 26.5584C22.2035 26.5584 23.4392 25.3227 23.4392 23.7983C23.4392 22.274 22.2035 21.0383 20.6791 21.0383C19.1548 21.0383 17.9191 22.274 17.9191 23.7983C17.9191 25.3227 19.1548 26.5584 20.6791 26.5584Z" fill="#00D8FF"/>
<path fill-rule="evenodd" clip-rule="evenodd" d="M20.6792 18.1868C24.3849 18.1868 27.8274 18.7185 30.423 19.6121C33.5503 20.6888 35.4732 22.3207 35.4732 23.7984C35.4732 25.3384 33.4354 27.0721 30.077 28.1848C27.538 29.026 24.1968 29.4651 20.6792 29.4651C17.0726 29.4651 13.6574 29.053 11.0898 28.1756C7.84131 27.0652 5.8847 25.309 5.8847 23.7984C5.8847 22.3327 7.7206 20.7133 10.804 19.6383C13.4093 18.73 16.9368 18.1868 20.6787 18.1868H20.6792Z" stroke="#00D8FF" stroke-width="1.66272"/>
<path fill-rule="evenodd" clip-rule="evenodd" d="M15.794 21.0087C17.6453 17.7986 19.8256 15.0821 21.8965 13.28C24.3915 11.1087 26.7658 10.2584 28.0459 10.9966C29.3799 11.7659 29.8637 14.3973 29.1499 17.8624C28.6107 20.4822 27.3215 23.5958 25.5641 26.643C23.7623 29.7673 21.6992 32.5199 19.6566 34.3053C17.072 36.5647 14.5731 37.3823 13.2645 36.6277C11.9948 35.896 11.5092 33.4961 12.1183 30.288C12.633 27.5773 13.9246 24.2502 15.7934 21.0087L15.794 21.0087Z" stroke="#00D8FF" stroke-width="1.66272"/>
<path fill-rule="evenodd" clip-rule="evenodd" d="M15.7987 26.6513C13.9421 23.4448 12.6781 20.1986 12.1505 17.5045C11.5154 14.2586 11.9645 11.7768 13.2434 11.0365C14.5761 10.2649 17.0976 11.1599 19.743 13.5089C21.7432 15.2848 23.7971 17.9563 25.5595 21.0007C27.3665 24.1219 28.7208 27.2841 29.2476 29.9454C29.9142 33.3131 29.3747 35.8863 28.0673 36.6431C26.7988 37.3774 24.4775 36.5999 22.0023 34.4699C19.911 32.6703 17.6735 29.8896 15.7987 26.6512V26.6513Z" stroke="#00D8FF" stroke-width="1.66272"/>
<path fill-rule="evenodd" clip-rule="evenodd" d="M51.3159 30.8498L47.933 25.7388C49.6427 25.588 51.1833 24.3491 51.1833 22.0859C51.1833 19.783 49.549 18.3091 47.2564 18.3091H42.2217V30.8403H43.7813V25.8611H46.2804L49.4744 30.8403L51.3159 30.8498ZM47.0698 24.4992H43.7821V19.7083H47.0698C48.5548 19.7083 49.5689 20.6851 49.5689 22.0946C49.5689 23.5042 48.554 24.5008 47.0698 24.5008V24.4992ZM57.1217 31.0745C58.6067 31.0745 59.8273 30.5861 60.7294 29.6848L60.0528 28.7636C59.3381 29.4966 58.2867 29.9096 57.2535 29.9096C55.3 29.9096 54.0969 28.4817 53.9842 26.7728H61.3297V26.4154C61.3297 23.6916 59.7137 21.5491 56.97 21.5491C54.3772 21.5491 52.4992 23.6726 52.4992 26.3027C52.4992 29.1401 54.4344 31.0674 57.1209 31.0674L57.1217 31.0745ZM59.9408 25.7381H53.9849C54.0604 24.3483 55.0173 22.7125 56.9534 22.7125C59.0204 22.7125 59.9218 24.3849 59.9408 25.7381ZM70.6884 30.849V24.6112C70.6884 22.4131 69.0922 21.5483 67.1752 21.5483C65.6902 21.5483 64.5261 22.0367 63.5493 23.0516L64.2068 24.0283C65.0144 23.1643 65.8983 22.7696 66.9878 22.7696C68.3029 22.7696 69.2804 23.4645 69.2804 24.6858V26.3201C68.5475 25.4744 67.5143 25.0797 66.2739 25.0797C64.7333 25.0797 63.0974 26.0382 63.0974 28.0672C63.0974 30.0398 64.7317 31.0737 66.2739 31.0737C67.4953 31.0737 68.5292 30.6417 69.2804 29.8151V30.8474L70.6884 30.849ZM66.7814 30.0596C65.4663 30.0596 64.5451 29.2338 64.5451 28.0871C64.5451 26.9221 65.4663 26.0954 66.7814 26.0954C67.7772 26.0954 68.7349 26.471 69.2804 27.2231V28.9328C68.7357 29.684 67.7772 30.0596 66.7814 30.0596ZM77.5019 31.0745C79.1553 31.0745 80.1321 30.3979 80.8277 29.4966L79.8883 28.6326C79.2871 29.4402 78.5168 29.8158 77.5853 29.8158C75.6501 29.8158 74.4486 28.3126 74.4486 26.3027C74.4486 24.2928 75.6509 22.8086 77.5853 22.8086C78.5248 22.8086 79.2951 23.1659 79.8883 23.9918L80.8277 23.1278C80.1329 22.2257 79.1553 21.5499 77.5019 21.5499C74.7964 21.5499 72.9739 23.617 72.9739 26.3035C72.9739 29.009 74.7964 31.0682 77.5019 31.0682V31.0745ZM85.0937 31.0745C85.9196 31.0745 86.4278 30.8299 86.7852 30.4924L86.3722 29.4402C86.184 29.6467 85.8164 29.8158 85.4137 29.8158C84.7943 29.8158 84.4926 29.3275 84.4926 28.6509V23.0142H86.3349V21.7746H84.4926V19.2946H83.083V21.7746H81.5797V23.015H83.083V28.9526C83.083 30.3058 83.7596 31.0761 85.0937 31.0761V31.0745Z" fill="#00D8FF"/>
</g>
<defs>
<filter id="filter0_d_13_26" x="-4" y="0" width="103.294" height="55.647" filterUnits="userSpaceOnUse" color-interpolation-filters="sRGB">
<feFlood flood-opacity="0" result="BackgroundImageFix"/>
<feColorMatrix in="SourceAlpha" type="matrix" values="0 0 0 0 0 0 0 0 0 0 0 0 0 0 0 0 0 0 127 0" result="hardAlpha"/>
<feOffset dy="4"/>
<feGaussianBlur stdDeviation="2"/>
<feComposite in2="hardAlpha" operator="out"/>
<feColorMatrix type="matrix" values="0 0 0 0 0 0 0 0 0 0 0 0 0 0 0 0 0 0 0.25 0"/>
<feBlend mode="normal" in2="BackgroundImageFix" result="effect1_dropShadow_13_26"/>
<feBlend mode="normal" in="SourceGraphic" in2="effect1_dropShadow_13_26" result="shape"/>
</filter>
</defs>
</svg>
