<svg width="96" height="50" viewBox="0 0 96 50" fill="none" xmlns="http://www.w3.org/2000/svg">
<g filter="url(#filter0_d_13_21)">
<path d="M40.0815 21.9958C39.0115 21.9958 38.1432 22.3136 37.4764 22.9455C36.8096 23.5774 36.4685 24.4109 36.4685 25.4265C36.4685 25.9538 36.5538 26.4344 36.7166 26.8764C36.8794 27.3183 37.143 27.7292 37.4842 28.0975C37.8253 28.4658 38.5231 28.9697 39.5581 29.6481C40.8258 30.4234 41.6515 31.0515 42.0546 31.5399C42.4291 31.9663 42.6406 32.5115 42.6516 33.0789C42.6516 33.7961 42.419 34.3659 41.9306 34.7962C41.4421 35.2265 40.7948 35.4397 39.9923 35.4397C39.1395 35.4397 38.4417 35.1412 37.7671 34.5481C37.0926 33.955 36.8096 33.1642 36.798 32.1757H36.4026V35.7576H36.798C36.9143 35.4165 37.0849 35.2459 37.302 35.2459C37.4066 35.2459 37.6508 35.3234 38.0773 35.4553C39.0077 35.7886 39.7752 35.9476 40.38 35.9476C41.4189 35.9476 42.3027 35.5832 43.0432 34.8466C43.4 34.5011 43.6824 34.0863 43.8731 33.6276C44.0637 33.169 44.1586 32.6762 44.1519 32.1795C44.1519 31.3732 43.9076 30.656 43.4231 30.0319C42.9385 29.4078 42.0042 28.6751 40.6009 27.8416C39.3992 27.1167 38.6122 26.5236 38.2517 26.0662C37.8989 25.6368 37.7057 25.0984 37.7051 24.5427C37.6951 24.2665 37.7494 23.9917 37.8638 23.7401C37.9782 23.4885 38.1494 23.2669 38.3641 23.0928C38.8022 22.7323 39.3721 22.5501 40.0892 22.5501C40.8955 22.5501 41.5623 22.7905 42.0973 23.2712C42.65 23.7989 42.9824 24.5163 43.0277 25.2792H43.4231V22.178H43.0548C43.0083 22.333 42.9695 22.4377 42.9308 22.4881C42.892 22.5385 42.8222 22.5579 42.7175 22.5579C42.5896 22.5579 42.3609 22.5036 42.0391 22.4028C41.3414 22.1702 40.7056 22.0539 40.1202 22.0539L40.0815 21.9958ZM52.9905 21.9958C51.6879 21.9958 50.5095 22.3059 49.4357 22.9184C48.3736 23.524 47.495 24.4053 46.8926 25.4692C46.2775 26.5203 45.9549 27.7169 45.9584 28.9348C45.9447 30.5536 46.5238 32.1214 47.5865 33.3425C48.672 34.6295 49.9823 35.4359 51.4941 35.746C51.843 35.9282 52.3353 36.3934 52.9827 37.1416C53.7193 37.9944 54.3318 38.6069 54.8435 38.9713C55.3406 39.3293 55.8933 39.603 56.4794 39.7815C57.0909 39.9622 57.7258 40.0511 58.3634 40.0451C59.1853 40.0451 59.9141 39.9017 60.5731 39.6071L60.4258 39.2465C60.0497 39.3822 59.6504 39.4481 59.224 39.4481C58.6503 39.4481 58.0727 39.2543 57.4912 38.8783C56.9097 38.5022 56.1848 37.7734 55.3203 36.7074L54.4752 35.746C56.1344 35.4242 57.4989 34.6218 58.5573 33.3348C59.5985 32.108 60.164 30.5478 60.1505 28.9387C60.1682 28.0181 59.9928 27.1041 59.6356 26.2554C59.2784 25.4068 58.7473 24.6424 58.0766 24.0116C56.6965 22.6742 55.0024 21.9958 52.9905 21.9958ZM61.0538 21.9958L61.0732 22.4222C61.9415 22.4222 62.43 22.678 62.5346 23.1897C62.5734 23.3719 62.5928 23.7131 62.5967 24.1977L62.5889 33.548C62.5811 34.2458 62.4804 34.6916 62.2904 34.8854C62.1004 35.0792 61.7748 35.1955 61.3057 35.2459L61.2864 35.6723H69.9311L70.1521 33.5518H69.7567C69.6404 34.1333 69.3845 34.5443 68.9736 34.7768C68.5627 35.0094 67.83 35.1257 66.7756 35.1257H65.9615C65.0118 35.1257 64.4652 34.7846 64.3178 34.0946C64.2886 33.9491 64.2743 33.801 64.2752 33.6526L64.314 24.1938C64.314 23.496 64.4031 23.0308 64.5853 22.7982C64.7675 22.5656 65.1009 22.4416 65.5816 22.4106L65.5622 21.9841L61.0538 21.9958ZM53.13 22.5075C53.8254 22.4924 54.5144 22.643 55.14 22.9471C55.7655 23.2511 56.3097 23.6997 56.7275 24.2558C57.6579 25.4188 58.1153 27.0237 58.1153 29.0511C58.1153 30.9739 57.6501 32.509 56.7198 33.6643C56.2794 34.2254 55.7129 34.6747 55.0663 34.9758C54.4196 35.2769 53.7111 35.4212 52.9982 35.3971C52.2964 35.4135 51.601 35.2595 50.9718 34.9482C50.3425 34.637 49.7981 34.1778 49.3853 33.61C48.4626 32.416 48.0052 30.8654 48.0052 28.9581C48.0052 27.0004 48.4704 25.4692 49.4008 24.2597C50.3311 23.0502 51.5717 22.5075 53.1378 22.5075H53.13ZM73.0169 24.5233C72.8076 24.5233 72.6447 24.5931 72.5246 24.7365C72.464 24.8084 72.4218 24.894 72.4015 24.9858C72.3813 25.0776 72.3836 25.173 72.4083 25.2637C72.4558 25.4765 72.5765 25.6658 72.7494 25.7987C72.9316 25.9538 73.1293 26.0313 73.3387 26.0313C73.548 26.0313 73.6992 25.9538 73.8116 25.7987C73.924 25.6436 73.9589 25.4692 73.9163 25.2637C73.8736 25.0583 73.7612 24.8761 73.5906 24.7365C73.4201 24.5969 73.2224 24.5233 73.0169 24.5233ZM78.7155 25.9576C78.3588 27.3377 77.5796 28.082 76.3895 28.206L76.405 28.6015H77.8006L77.7812 33.2611L77.8587 34.8621C77.9944 35.5095 78.4209 35.839 79.1264 35.839C80.1498 35.839 81.2197 35.2188 82.344 33.9666L82.0028 33.6759C81.1887 34.4977 80.4754 34.9087 79.8474 34.9087C79.4598 34.9087 79.2272 34.6877 79.1341 34.2496C79.1083 34.126 79.0966 33.9999 79.0993 33.8736L79.1148 28.5859H81.2469L81.2275 27.9541H79.1264V25.946L78.7155 25.9576ZM86.9416 27.7176C85.7515 27.7176 84.7823 28.2991 84.0341 29.4427C83.286 30.5863 83.0534 31.8655 83.348 33.2689C83.4709 34.0048 83.8399 34.6772 84.3947 35.1761C84.9219 35.6258 85.5964 35.8468 86.3911 35.8468C87.1354 35.8468 88.1743 35.653 88.6085 35.2769C89.0427 34.9009 89.4497 34.2806 89.8219 33.4394L89.5234 33.1293C88.9303 34.2225 87.7324 34.773 86.8253 34.773C85.5848 34.773 84.8211 34.0907 84.4993 32.7339C84.4618 32.5508 84.4346 32.3657 84.4179 32.1795C85.891 31.9469 87.0152 31.5322 87.7712 30.9313C88.5271 30.3304 89.283 29.6908 89.1435 29.024C89.067 28.6422 88.8498 28.3032 88.5349 28.0742C88.2131 27.8416 87.3719 27.7137 86.9067 27.7137L86.9416 27.7176ZM73.9318 27.768L71.3655 28.3572V28.8147L72.2571 28.6984C72.6835 28.6984 72.9394 28.8922 73.0208 29.2799C73.0531 29.4577 73.0699 29.638 73.0712 29.8187L73.044 34.0132C73.0363 34.5947 72.9743 34.9319 72.8425 35.0327C72.7107 35.1335 72.3656 35.1878 71.8113 35.1878L71.7958 35.5832H75.8662L75.8584 35.1878C75.2925 35.1878 74.9281 35.149 74.7652 35.056C74.6024 34.9629 74.4939 34.8117 74.4474 34.5714C74.4086 34.3969 74.3931 34.0984 74.3931 33.6798L74.4086 27.7602H73.9434L73.9318 27.768ZM86.2903 28.5433C86.5384 28.5433 86.7788 28.6402 87.0191 28.8263C87.2595 29.0124 87.4068 29.2217 87.4455 29.4466C87.6781 30.563 86.6896 31.3306 84.4606 31.7609C84.3985 30.9856 84.5381 30.2102 84.8986 29.5435C85.2591 28.8767 85.7205 28.5356 86.2864 28.5356L86.2903 28.5433Z" fill="#003B57"/>
<path d="M32.7508 7.57495H10.6776C9.19674 7.57495 7.98724 8.78444 7.98724 10.2653V34.6102C7.98724 36.0911 9.19674 37.3006 10.6776 37.3006H25.2148C25.0481 30.0669 27.5213 16.0298 32.7508 7.5827V7.57495Z" fill="#0F80CC"/>
<path d="M31.9484 8.35788H10.6776C10.4275 8.35737 10.1798 8.40625 9.94863 8.50173C9.71747 8.5972 9.50744 8.73739 9.33059 8.91423C9.15374 9.09108 9.01356 9.30112 8.91808 9.53228C8.82261 9.76344 8.77372 10.0112 8.77423 10.2613V32.823C13.5928 30.9739 20.8188 29.3806 25.8196 29.4504C26.8275 24.1976 29.7737 13.944 31.9446 8.354L31.9484 8.35788Z" fill="url(#paint0_linear_13_21)"/>
<path d="M37.899 6.77633C36.3484 5.42728 34.5574 5.97 32.7509 7.57103L31.9484 8.3541C28.8588 11.6376 25.9901 17.7083 25.0985 22.3447C25.4862 23.0502 25.7188 23.9457 25.8971 24.6706L26.0134 25.1513L26.1297 25.694C26.1297 25.694 26.1026 25.5894 25.9901 25.2599L25.9126 25.0467C25.8981 25.0075 25.8826 24.9687 25.8661 24.9304C25.6645 24.4652 25.1063 23.4728 24.8582 23.0425C24.6637 23.6126 24.4802 24.1865 24.3077 24.7637C25.0171 26.0584 25.4474 28.2797 25.4474 28.2797C25.4474 28.2797 25.4087 28.1363 25.2303 27.6323C25.0753 27.1865 24.2844 25.8103 24.0984 25.4847C23.7805 26.6632 23.6526 27.4618 23.7689 27.6556C23.9898 28.0316 24.203 28.679 24.3891 29.3923C24.6793 30.5724 24.916 31.765 25.0985 32.9665L25.1257 33.296C25.0741 34.6289 25.1039 35.9636 25.2148 37.2928C25.3544 38.9713 25.6141 40.4134 25.9514 41.1887L26.1762 41.0647C25.6878 39.5451 25.4862 37.5486 25.5753 35.2498C25.7072 31.7338 26.5174 27.4967 28.0098 23.0774C30.5296 16.4096 34.0379 11.06 37.2439 8.50141C34.3209 11.1375 30.3668 19.6815 29.1806 22.8448C27.8548 26.388 26.9166 29.7063 26.3507 32.8967C27.3276 29.9118 30.487 28.6325 30.487 28.6325C30.487 28.6325 32.0376 26.7213 33.8441 23.9922L30.3823 24.9149L29.2659 25.4111C29.2659 25.4111 32.1151 23.6744 34.5613 22.8913C37.9223 17.5959 41.5856 10.0714 37.8951 6.78409" fill="#003B57"/>
</g>
<defs>
<filter id="filter0_d_13_21" x="-3.52942" y="0" width="103.294" height="55.647" filterUnits="userSpaceOnUse" color-interpolation-filters="sRGB">
<feFlood flood-opacity="0" result="BackgroundImageFix"/>
<feColorMatrix in="SourceAlpha" type="matrix" values="0 0 0 0 0 0 0 0 0 0 0 0 0 0 0 0 0 0 127 0" result="hardAlpha"/>
<feOffset dy="4"/>
<feGaussianBlur stdDeviation="2"/>
<feComposite in2="hardAlpha" operator="out"/>
<feColorMatrix type="matrix" values="0 0 0 0 0 0 0 0 0 0 0 0 0 0 0 0 0 0 0.25 0"/>
<feBlend mode="normal" in2="BackgroundImageFix" result="effect1_dropShadow_13_21"/>
<feBlend mode="normal" in="SourceGraphic" in2="effect1_dropShadow_13_21" result="shape"/>
</filter>
<linearGradient id="paint0_linear_13_21" x1="22.1368" y1="8.86184" x2="22.1368" y2="31.4662" gradientUnits="userSpaceOnUse">
<stop stop-color="#97D9F6"/>
<stop offset="0.92024" stop-color="#0F80CC"/>
<stop offset="1" stop-color="#0F80CC"/>
</linearGradient>
</defs>
</svg>
